<?xml version="1.0" encoding="UTF-8" standalone="no"?><svg xmlns="http://www.w3.org/2000/svg" xmlns:xlink="http://www.w3.org/1999/xlink" clip-rule="evenodd" stroke-miterlimit="10" viewBox="0 0 99 99"><desc>SVG generated by Keynote</desc><defs></defs><g transform="matrix(1.00, 0.00, -0.00, -1.00, 0.0, 99.0)"><path d="M 83.5 83.2 C 102.3 64.6 102.3 34.4 83.5 15.8 C 64.7 -2.8 34.3 -2.8 15.5 15.8 C -3.3 34.4 -3.3 64.6 15.5 83.2 C 34.3 101.8 64.7 101.8 83.5 83.2 Z M 83.5 83.2 " fill="#82C822"></path><g><clipPath id="clip0x7face6a81450"><path d="M 1.0 1.9 L 98.0 1.9 L 98.0 97.1 L 1.0 97.1 Z M 1.0 1.9 "></path></clipPath><g clip-path="url(#clip0x7face6a81450)"><text xml:space="preserve" font-family="HelveticaNeue-Light,Helvetica Neue" font-size="24.0" fill="#FEFFFF" transform="matrix(1.00, 0.00, -0.00, -1.00, 28.2, 41.2)">N</text><text xml:space="preserve" font-family="HelveticaNeue-Light,Helvetica Neue" font-size="24.0" fill="#FEFFFF" transform="matrix(1.00, 0.00, -0.00, -1.00, 45.0, 41.2)">/</text><text xml:space="preserve" font-family="HelveticaNeue-Light,Helvetica Neue" font-size="24.0" fill="#FEFFFF" transform="matrix(1.00, 0.00, -0.00, -1.00, 53.0, 41.2)">O</text></g></g></g></svg>